<?xml version="1.0" encoding="UTF-8"?>
<svg version="1.1" xmlns="http://www.w3.org/2000/svg" width="603" height="183">
<path d="M0 0 C1.67542976 0.28604898 3.34385343 0.61781233 5 1 C4.88501733 3.20887757 4.75756495 5.41710787 4.625 7.625 C4.55539062 8.85476562 4.48578125 10.08453125 4.4140625 11.3515625 C4.0185513 14.83653855 3.23738151 17.73049601 2 21 C0.35 21 -1.3 21 -3 21 C-3.25394531 20.28972656 -3.50789062 19.57945313 -3.76953125 18.84765625 C-4.11371094 17.92855469 -4.45789063 17.00945313 -4.8125 16.0625 C-5.14894531 15.14597656 -5.48539063 14.22945312 -5.83203125 13.28515625 C-6.83409094 10.6659576 -6.83409094 10.6659576 -10 10 C-15.56718965 9.45568098 -15.56718965 9.45568098 -20.5 11.5625 C-22.66544082 15.08134133 -22.85255191 16.95037841 -22 21 C-15.31752033 26.70795138 -6.19547993 29.1057225 2 32 C2 32.66 2 33.32 2 34 C2.66 34 3.32 34 4 34 C7.37688469 39.80402056 9.14424867 44.26037532 8 51 C4.99706021 60.39184741 -0.34341518 66.37103461 -9 71 C-16.05377253 73.64359859 -24.42472992 73.94995014 -31.765625 72.42578125 C-32.50296875 72.28527344 -33.2403125 72.14476563 -34 72 C-34.33 72.33 -34.66 72.66 -35 73 C-36.99958364 73.04080783 -39.00045254 73.04254356 -41 73 C-41 72.34 -41 71.68 -41 71 C-42.29099609 71.05760498 -43.58199219 71.11520996 -44.91210938 71.17456055 C-49.72700268 71.37448171 -54.54153482 71.50021962 -59.359375 71.60424805 C-61.43943055 71.65938634 -63.51906314 71.73432486 -65.59765625 71.82983398 C-82.83263034 72.60161084 -82.83263034 72.60161084 -88.02001953 68.76831055 C-90.09933114 65.93273043 -91.56706487 63.20415725 -93 60 C-93.86845273 58.62852498 -94.75875893 57.27039757 -95.6796875 55.93359375 C-96.4150745 54.77050771 -97.14699942 53.60522356 -97.875 52.4375 C-100.61694688 47.97681589 -100.61694688 47.97681589 -104 44 C-105.65497356 47.30994713 -105.10084335 50.99123 -105.0625 54.625 C-105.05798828 55.42679688 -105.05347656 56.22859375 -105.04882812 57.0546875 C-105.03703168 59.03649006 -105.01909605 61.01825433 -105 63 C-102.69 63.66 -100.38 64.32 -98 65 C-98 66.98 -98 68.96 -98 71 C-102.11149887 71.16728213 -106.22319806 71.32787468 -110.33520508 71.48217773 C-111.73501681 71.53566026 -113.13475904 71.59099434 -114.53442383 71.64819336 C-116.5422896 71.72992949 -118.55044187 71.80453025 -120.55859375 71.87890625 C-122.37315063 71.94960327 -122.37315063 71.94960327 -124.22436523 72.02172852 C-127 72 -127 72 -128 71 C-128.125 68 -128.125 68 -128 65 C-127 64 -127 64 -123.9375 63.9375 C-122.968125 63.958125 -121.99875 63.97875 -121 64 C-120.28826012 49.9233668 -119.74636609 35.9710955 -120.68139648 21.89404297 C-120.94714076 17.73244769 -121.13935396 14.07151487 -120 10 C-122.64 9.67 -125.28 9.34 -128 9 C-127.2265625 10.1446875 -127.2265625 10.1446875 -126.4375 11.3125 C-124.19456409 17.06611822 -124.84748307 22.48304111 -126.7578125 28.3125 C-129.76300326 34.97947781 -135.07721423 39.08167472 -141.56640625 42.21875 C-146.57380414 43.82626136 -151.7787876 43.78244948 -157 44 C-157 50.6 -157 57.2 -157 64 C-155.02 64 -153.04 64 -151 64 C-150.34 64.33 -149.68 64.66 -149 65 C-148.957279 66.66611905 -148.95936168 68.33382885 -149 70 C-150 71 -150 71 -152.77563477 71.11352539 C-153.98533936 71.10828857 -155.19504395 71.10305176 -156.44140625 71.09765625 C-157.74658203 71.09443359 -159.05175781 71.09121094 -160.39648438 71.08789062 C-161.7851569 71.07953401 -163.17382877 71.07106905 -164.5625 71.0625 C-165.95507656 71.05748666 -167.34765481 71.05292347 -168.74023438 71.04882812 C-172.1601987 71.03699434 -175.58007844 71.0205088 -179 71 C-180.125 66.25 -180.125 66.25 -179 64 C-177.02 64 -175.04 64 -173 64 C-171.93167755 45.99113592 -171.88944814 28.03185845 -172 10 C-174.31 9.67 -176.62 9.34 -179 9 C-180.125 4.25 -180.125 4.25 -179 2 C-173.27086197 1.92565008 -167.54200699 1.87130328 -161.8125 1.83520508 C-159.86485906 1.82015101 -157.91725184 1.7997032 -155.96972656 1.77368164 C-153.16462872 1.73714947 -150.35998046 1.72023967 -147.5546875 1.70703125 C-146.25590164 1.68380547 -146.25590164 1.68380547 -144.93087769 1.66011047 C-137.97332387 1.6581888 -133.44352544 3.60330637 -128 8 C-128 6.35 -128 4.7 -128 3 C-124.34940127 1.78313376 -120.95265024 1.7995028 -117.1484375 1.76171875 C-115.98823593 1.74961113 -115.98823593 1.74961113 -114.80459595 1.73725891 C-113.16548899 1.72343214 -111.52635341 1.71270369 -109.88720703 1.70483398 C-108.22305778 1.69335152 -106.55894427 1.67295914 -104.89501953 1.64331055 C-86.58506906 1.31719302 -86.58506906 1.31719302 -80 6 C-75.90558114 10.19677933 -75.16429768 14.56665588 -74.83203125 20.24609375 C-75.15726938 25.57848632 -77.52819309 29.2338317 -80.875 33.25 C-83.45613297 35.37563892 -86.21004894 37.16030475 -89 39 C-86.11362803 43.0827354 -83.21116189 47.1530088 -80.28662109 51.20849609 C-79.17733741 52.75307364 -78.08150472 54.30729522 -76.98828125 55.86328125 C-74.42948955 59.37658851 -72.76192396 61.62650786 -68.8125 63.5625 C-65.81564308 64.10247134 -65.81564308 64.10247134 -62 64 C-62 46.18 -62 28.36 -62 10 C-64.31 9.67 -66.62 9.34 -69 9 C-69.93423645 5.98968256 -70.04449911 5.13349732 -69 2 C-59.43 2 -49.86 2 -40 2 C-39 6 -39 6 -40 9 C-41.98 9.33 -43.96 9.66 -46 10 C-46.84737249 12.94682603 -47.12634635 15.56694241 -47.12939453 18.62915039 C-47.13412277 19.99560448 -47.13412277 19.99560448 -47.13894653 21.3896637 C-47.1369223 22.36580124 -47.13489807 23.34193878 -47.1328125 24.34765625 C-47.13376923 25.35589951 -47.13472595 26.36414276 -47.13571167 27.40293884 C-47.13639157 29.53205427 -47.13455055 31.66117177 -47.13037109 33.7902832 C-47.12501462 37.05359536 -47.13032541 40.31677022 -47.13671875 43.58007812 C-47.13605804 45.6484378 -47.13477704 47.7167974 -47.1328125 49.78515625 C-47.13584885 51.25239891 -47.13584885 51.25239891 -47.13894653 52.74928284 C-47.13579437 53.65710007 -47.13264221 54.5649173 -47.12939453 55.50024414 C-47.12859894 56.29870255 -47.12780334 57.09716095 -47.12698364 57.91981506 C-47.07772601 60.19654865 -47.07772601 60.19654865 -46 63 C-43.03 63.495 -43.03 63.495 -40 64 C-39.87882813 63.15695313 -39.75765625 62.31390625 -39.6328125 61.4453125 C-39.38144531 59.80175781 -39.38144531 59.80175781 -39.125 58.125 C-38.88136719 56.48917969 -38.88136719 56.48917969 -38.6328125 54.8203125 C-38 52 -38 52 -36 50 C-34.68 50 -33.36 50 -32 50 C-31.65388672 51.15628906 -31.65388672 51.15628906 -31.30078125 52.3359375 C-30.97464844 53.33882812 -30.64851562 54.34171875 -30.3125 55.375 C-29.99925781 56.37273437 -29.68601562 57.37046875 -29.36328125 58.3984375 C-28.21401933 61.17322132 -28.21401933 61.17322132 -25.5703125 62.33984375 C-20.30610153 63.69189793 -15.27014472 63.02832092 -10 62 C-9.4055575 60.51236955 -8.85102325 59.00877399 -8.3125 57.5 C-7.99925781 56.6646875 -7.68601562 55.829375 -7.36328125 54.96875 C-6.84286743 50.71590587 -7.61920889 47.58089163 -10 44 C-12.55359629 42.09693965 -15.28633986 41.00473711 -18.25 39.875 C-25.53748867 36.96254816 -31.30484187 33.70584243 -36 27.25 C-37.61659301 21.99607272 -37.26317178 17.12113804 -35.1953125 12.01171875 C-31.75857527 6.35489945 -26.21909765 2.91251012 -20 1 C-14.95305111 0.48984668 -9.926488 0.66668257 -4.8671875 0.88671875 C-3.59101563 0.92410156 -2.31484375 0.96148437 -1 1 C-0.67 0.67 -0.34 0.34 0 0 Z M-157 10 C-157 18.91 -157 27.82 -157 37 C-149.15919761 36.3916683 -149.15919761 36.3916683 -144 32 C-140.98800431 26.98000718 -140.53364583 23.10020728 -141.37109375 17.30859375 C-142.37362529 13.6284935 -143.84215455 12.08283423 -147 10 C-150.43225524 9.07289657 -153.70393721 8.35196861 -157 10 Z M-104 9 C-106.23131867 10.8076787 -106.23131867 10.8076787 -106.22705078 13.33837891 C-106.21657715 14.29147949 -106.20610352 15.24458008 -106.1953125 16.2265625 C-106.18886719 17.2578125 -106.18242187 18.2890625 -106.17578125 19.3515625 C-106.15902344 20.43179687 -106.14226562 21.51203125 -106.125 22.625 C-106.11597656 23.71296875 -106.10695313 24.8009375 -106.09765625 25.921875 C-106.07403409 28.61480152 -106.04109556 31.30729255 -106 34 C-99.93462644 34.30326868 -96.60716911 32.83578529 -92 29 C-89.57668953 25.16309176 -89.60129254 21.46552351 -90 17 C-90.77443897 14.12545364 -90.77443897 14.12545364 -93 12 C-96.48775561 10.40943013 -100.13391769 9 -104 9 Z " fill="#E3E3E3" transform="translate(396,9)"/>
<path d="M0 0 C0.87914062 -0.01933594 1.75828125 -0.03867188 2.6640625 -0.05859375 C6.31927554 0.6102997 8.36807401 2.25263761 11.375 4.4375 C12.79511809 5.36537583 14.21852636 6.28822823 15.64453125 7.20703125 C17.15964467 8.220173 18.6739542 9.23451786 20.1875 10.25 C20.96287109 10.74564453 21.73824219 11.24128906 22.53710938 11.75195312 C23.27380859 12.25275391 24.01050781 12.75355469 24.76953125 13.26953125 C25.43831299 13.71014893 26.10709473 14.1507666 26.79614258 14.60473633 C30.49366552 18.89688179 29.52769984 26.11281407 29.53613281 31.55322266 C29.54358017 32.72312241 29.54358017 32.72312241 29.55117798 33.91665649 C29.56569413 36.47830107 29.57258492 39.03988367 29.578125 41.6015625 C29.58236607 42.92459948 29.58236607 42.92459948 29.58669281 44.27436447 C29.60164489 48.94479416 29.6108987 53.61519329 29.61523438 58.28564453 C29.62070417 63.07657496 29.6447121 67.86721908 29.67320633 72.65806007 C29.69195955 76.37129496 29.69704507 80.08446272 29.69857025 83.79774094 C29.70157023 85.5621433 29.70950732 87.32654525 29.72275543 89.09090042 C29.91152947 116.17017548 29.91152947 116.17017548 23.21728516 124.30517578 C18.77692896 127.0343531 13.06802235 126.12002557 8.0625 125.875 C6.84498047 125.84341797 5.62746094 125.81183594 4.37304688 125.77929688 C1.37124565 125.69689449 -1.62564653 125.58189803 -4.625 125.4375 C-5.80635474 131.92099807 -5.73822974 138.29964507 -5.6875 144.875 C-5.68298828 145.98810547 -5.67847656 147.10121094 -5.67382812 148.24804688 C-5.66211193 150.97792101 -5.64570699 153.70768174 -5.625 156.4375 C-8.39960414 157.36236805 -10.05274594 157.56389391 -12.91503906 157.56689453 C-13.7815509 157.57004669 -14.64806274 157.57319885 -15.54083252 157.57644653 C-16.9514798 157.57341019 -16.9514798 157.57341019 -18.390625 157.5703125 C-19.86725616 157.57174759 -19.86725616 157.57174759 -21.37371826 157.57321167 C-23.47196516 157.57389355 -25.57021416 157.57203873 -27.66845703 157.56787109 C-30.79334649 157.56263677 -33.91808449 157.56775519 -37.04296875 157.57421875 C-50.92687203 157.57834546 -64.76043819 157.16206948 -78.625 156.4375 C-79.94535976 153.79678048 -79.59316749 152.10590487 -79.37133789 149.16162109 C-79.29117935 148.0606308 -79.21102081 146.9596405 -79.12843323 145.82528687 C-79.03577682 144.63255157 -78.94312042 143.43981628 -78.84765625 142.2109375 C-78.75745712 140.99298492 -78.667258 139.77503235 -78.57432556 138.52017212 C-78.28404359 134.61719521 -77.9858571 130.71486712 -77.6875 126.8125 C-77.48971479 124.17191387 -77.29244244 121.53128926 -77.09570312 118.890625 C-76.61142632 112.40579135 -76.12065261 105.92147354 -75.625 99.4375 C-75.295 99.4375 -74.965 99.4375 -74.625 99.4375 C-73.49490303 110.55118197 -73.50841081 121.59231772 -73.5625 132.75 C-73.56752803 134.56966022 -73.57208862 136.38932179 -73.57617188 138.20898438 C-73.5862073 142.61855138 -73.60580011 147.02792585 -73.625 151.4375 C-64.715 151.1075 -55.805 150.7775 -46.625 150.4375 C-46.625 140.5375 -46.625 130.6375 -46.625 120.4375 C-44.30984375 120.12296875 -41.9946875 119.8084375 -39.609375 119.484375 C-37.32512677 119.16597457 -35.04146121 118.84366511 -32.7578125 118.52099609 C-31.1913202 118.30175137 -29.62426798 118.08646425 -28.05664062 117.87548828 C-9.77218051 115.83781795 -9.77218051 115.83781795 5.375 106.4375 C11.09582774 96.86133183 9.50784437 83.16476139 9.40454102 72.45947266 C9.34442166 65.50649532 9.50933186 58.62634255 9.9375 51.6875 C10.36211603 44.32772546 10.37427516 37.05357561 10.0625 29.6875 C10.02777588 28.79450195 9.99305176 27.90150391 9.95727539 26.98144531 C9.74599852 17.27278003 9.74599852 17.27278003 5.95239258 8.71166992 C3.06659804 6.38061255 -0.19192721 6.98180988 -3.74609375 7.09765625 C-8.2693716 7.63161171 -11.63471467 9.31860416 -15.625 11.4375 C-17.31252416 12.26599497 -19.00011665 13.0943521 -20.68847656 13.92114258 C-26.47421849 16.77097789 -32.19879041 19.731479 -37.90234375 22.7421875 C-39.00126953 23.3204126 -40.10019531 23.8986377 -41.23242188 24.49438477 C-43.41010665 25.6424589 -45.58473088 26.79636208 -47.75585938 27.95678711 C-53.6201902 31.04725974 -59.26760064 33.54817902 -65.625 35.4375 C-62.73530576 32.2554367 -60.07834693 30.4824633 -56.1875 28.6875 C-50.11750428 25.74711838 -44.46999373 22.35876472 -38.76171875 18.77587891 C-34.12475209 15.87141693 -29.47142699 12.9940713 -24.8125 10.125 C-23.83369873 9.51398437 -22.85489746 8.90296875 -21.84643555 8.2734375 C-14.93697123 4.02616818 -8.35706407 0.01232605 0 0 Z " fill="#E7E7E7" transform="translate(141.625,4.5625)"/>
<path d="M0 0 C1.06669922 0.04382813 2.13339844 0.08765625 3.23242188 0.1328125 C11.25101353 0.49387479 11.25101353 0.49387479 14.02148438 1.14086914 C18.31278509 1.88524015 22.57919868 1.74660778 26.92578125 1.72265625 C28.38010811 1.72053383 28.38010811 1.72053383 29.86381531 1.71836853 C32.95090867 1.71278513 36.03792867 1.70023564 39.125 1.6875 C41.22200416 1.68248286 43.31900946 1.67792032 45.41601562 1.67382812 C50.54820521 1.66282112 55.68034018 1.64556788 60.8125 1.625 C62.40662284 4.81324568 61.91424735 8.25396662 61.875 11.75 C61.87048828 12.50410156 61.86597656 13.25820312 61.86132812 14.03515625 C61.84953499 15.89847127 61.83159942 17.76174555 61.8125 19.625 C59.5 20.25 59.5 20.25 56.8125 20.625 C53.8125 18.625 53.8125 18.625 52.9375 15.625 C52.14077548 12.4903304 52.14077548 12.4903304 49.63671875 11.4765625 C46.53985685 10.54279224 43.72504982 10.21264065 40.5 10 C38.89705078 9.88785156 38.89705078 9.88785156 37.26171875 9.7734375 C36.45347656 9.72445312 35.64523437 9.67546875 34.8125 9.625 C34.82410156 10.72199219 34.83570313 11.81898437 34.84765625 12.94921875 C34.85703964 14.40364412 34.86613925 15.85807135 34.875 17.3125 C34.88337891 18.03373047 34.89175781 18.75496094 34.90039062 19.49804688 C34.91793632 23.34055382 34.74774221 26.89139526 33.8125 30.625 C35.41767097 30.53766424 37.02171662 30.42947776 38.625 30.3125 C39.51832031 30.25449219 40.41164063 30.19648438 41.33203125 30.13671875 C44.16222352 29.55285231 45.05438857 28.86659208 46.8125 26.625 C47.98824711 24.52510348 47.98824711 24.52510348 48.8125 22.625 C49.4725 22.625 50.1325 22.625 50.8125 22.625 C51.1425 21.965 51.4725 21.305 51.8125 20.625 C52.4725 20.625 53.1325 20.625 53.8125 20.625 C54.67166865 23.60308159 54.9410051 26.25998917 54.9453125 29.35546875 C54.94660156 30.24041016 54.94789063 31.12535156 54.94921875 32.03710938 C54.94535156 32.95298828 54.94148438 33.86886719 54.9375 34.8125 C54.94136719 35.73998047 54.94523437 36.66746094 54.94921875 37.62304688 C54.94792969 38.50412109 54.94664062 39.38519531 54.9453125 40.29296875 C54.94418457 41.10016357 54.94305664 41.9073584 54.94189453 42.73901367 C54.8125 44.625 54.8125 44.625 53.8125 45.625 C52.14632885 45.66563832 50.47861905 45.667721 48.8125 45.625 C48.379375 44.655625 47.94625 43.68625 47.5 42.6875 C46.1110139 39.34768235 46.1110139 39.34768235 42.8125 38.625 C40.5025 38.625 38.1925 38.625 35.8125 38.625 C35.1525 46.545 34.4925 54.465 33.8125 62.625 C37.5559375 62.4703125 37.5559375 62.4703125 41.375 62.3125 C42.14658447 62.28760498 42.91816895 62.26270996 43.71313477 62.23706055 C48.69209809 61.97627886 52.44632094 61.09861475 56.8125 58.625 C58.15594038 56.45566835 58.15594038 56.45566835 58.5625 54 C59.109375 51.5859375 59.109375 51.5859375 59.8125 49.625 C62.8125 48.625 62.8125 48.625 66.8125 49.625 C66.1525 56.555 65.4925 63.485 64.8125 70.625 C60.12092178 71.4069297 55.89107764 71.78038066 51.1875 71.75 C50.44129395 71.74806641 49.69508789 71.74613281 48.92626953 71.74414062 C36.88335438 71.65800016 24.84462871 71.10844522 12.8125 70.625 C12.4825 68.975 12.1525 67.325 11.8125 65.625 C8.63552915 66.68399028 5.89143455 68.1162349 2.9453125 69.6875 C-5.35364665 73.33539413 -17.8517252 72.94641841 -26.515625 70.80078125 C-28.84452897 69.86294417 -30.99955624 68.8509644 -33.1875 67.625 C-34.51944542 66.95556469 -35.85237938 66.28808004 -37.1875 65.625 C-37.1875 64.965 -37.1875 64.305 -37.1875 63.625 C-38.1775 63.295 -39.1675 62.965 -40.1875 62.625 C-40.1875 61.965 -40.1875 61.305 -40.1875 60.625 C-40.8475 60.625 -41.5075 60.625 -42.1875 60.625 C-43.00915509 58.92105107 -43.81940645 57.21160102 -44.625 55.5 C-45.07746094 54.54867187 -45.52992188 53.59734375 -45.99609375 52.6171875 C-49.91544681 42.77382866 -49.73628757 29.93282979 -45.65234375 20.1953125 C-40.3580543 10.90559928 -32.7736339 4.60611979 -22.7265625 1.23828125 C-15.0885187 -0.6066001 -7.79584949 -0.38098226 0 0 Z M-28.5625 15.4375 C-33.79275212 23.21181497 -34.0215343 31.48113614 -33.1875 40.625 C-31.12040892 48.58436616 -27.1649663 56.0262154 -20.1875 60.625 C-13.97013913 63.86581674 -6.99333501 65.07792686 -0.171875 63.015625 C1.52333235 62.29331926 3.17084893 61.46192015 4.8125 60.625 C9.54934211 58.625 9.54934211 58.625 11.8125 58.625 C12.4725 60.605 13.1325 62.585 13.8125 64.625 C15.7925 63.965 17.7725 63.305 19.8125 62.625 C20.81765245 55.97184804 20.96781933 49.4726699 20.9375 42.75 C20.93339111 41.65606934 20.92928223 40.56213867 20.92504883 39.43505859 C20.87930725 32.70366869 20.78450647 25.97584497 20.5 19.25 C20.47760254 18.51410645 20.45520508 17.77821289 20.43212891 17.02001953 C20.28422276 14.21917241 20.11794307 12.10013367 18.58203125 9.7109375 C16.42749062 8.24835717 16.42749062 8.24835717 11.8125 7.625 C10.8225 11.915 9.8325 16.205 8.8125 20.625 C7.4925 20.625 6.1725 20.625 4.8125 20.625 C4.68875 20.02171875 4.565 19.4184375 4.4375 18.796875 C3.56472032 15.41485375 2.82228314 12.56795925 0.21875 10.13671875 C-9.74222803 4.52346269 -21.48549527 6.65519292 -28.5625 15.4375 Z " fill="#E6E6E6" transform="translate(432.1875,103.375)"/>
<path d="M0 0 C0.67804688 0.0721875 1.35609375 0.144375 2.0546875 0.21875 C7.76651579 0.78835061 13.17927646 1.03032082 18.90625 0.546875 C21 1 21 1 22.62890625 3.109375 C24.09388241 6.19792873 25.30871063 9.27277269 26.4375 12.5 C26.6550293 13.11891113 26.87255859 13.73782227 27.09667969 14.37548828 C28.41926689 18.18108243 29.61537363 22.01001702 30.75 25.875 C32.75212386 32.51578941 35.14335288 39.00084214 37.5625 45.5 C37.95083008 46.55171387 38.33916016 47.60342773 38.73925781 48.68701172 C39.1153418 49.68748535 39.49142578 50.68795898 39.87890625 51.71875 C40.2147876 52.61529297 40.55066895 53.51183594 40.89672852 54.43554688 C43.24491778 60.10854015 43.24491778 60.10854015 48.1875 63.3125 C49.115625 63.539375 50.04375 63.76625 51 64 C51.042721 65.66611905 51.04063832 67.33382885 51 69 C48.00914918 71.99085082 40.51718858 71.09309681 36.625 71.125 C31.34059683 71.08834518 26.2339763 70.7096917 21 70 C21 68.02 21 66.04 21 64 C22.65 63.67 24.3 63.34 26 63 C25.18979911 60.20764713 24.3769488 57.41611379 23.5625 54.625 C23.33240234 53.8309375 23.10230469 53.036875 22.86523438 52.21875 C22.64287109 51.45820313 22.42050781 50.69765625 22.19140625 49.9140625 C21.88505249 48.8614624 21.88505249 48.8614624 21.57250977 47.78759766 C21.02623679 45.92489242 21.02623679 45.92489242 20 44 C12.74 44 5.48 44 -2 44 C-4.72955384 49.97550976 -7.4446882 55.94794575 -10 62 C-8.02 62.66 -6.04 63.32 -4 64 C-4.33 65.98 -4.66 67.96 -5 70 C-8.74820939 70.86918986 -12.21542035 71.1264867 -16.05957031 71.12939453 C-17.25721008 71.13254669 -18.45484985 71.13569885 -19.68878174 71.13894653 C-20.97226501 71.1369223 -22.25574829 71.13489807 -23.578125 71.1328125 C-24.91379819 71.13348648 -26.24947127 71.13445729 -27.58514404 71.13571167 C-30.37578507 71.13718217 -33.16639397 71.13505356 -35.95703125 71.13037109 C-39.54066117 71.12465199 -43.12421655 71.1279706 -46.70784378 71.13394356 C-50.1229436 71.13841351 -53.53802306 71.13529058 -56.953125 71.1328125 C-58.2447052 71.13483673 -59.5362854 71.13686096 -60.86700439 71.13894653 C-62.05203552 71.13579437 -63.23706665 71.13264221 -64.45800781 71.12939453 C-66.03089569 71.12820114 -66.03089569 71.12820114 -67.63555908 71.12698364 C-70 71 -70 71 -71 70 C-71.04080783 68.00041636 -71.04254356 65.99954746 -71 64 C-68.69 63.34 -66.38 62.68 -64 62 C-63.97470826 54.77344508 -63.95715781 47.5469015 -63.94506836 40.3203125 C-63.94003011 37.86034722 -63.9331994 35.40038495 -63.92456055 32.94042969 C-63.91247277 29.41079975 -63.90676671 25.88120931 -63.90234375 22.3515625 C-63.89718246 21.24632233 -63.89202118 20.14108215 -63.88670349 19.00234985 C-63.88662796 17.98144257 -63.88655243 16.96053528 -63.88647461 15.90869141 C-63.88314369 14.55633896 -63.88314369 14.55633896 -63.87974548 13.17666626 C-63.8580715 10.95286252 -63.8580715 10.95286252 -65 9 C-66.97888961 8.27306096 -68.97954558 7.60183749 -71 7 C-71.33 5.35 -71.66 3.7 -72 2 C-69.12981559 0.56490779 -66.66456277 0.88841494 -63.4609375 0.90234375 C-62.15898437 0.90556641 -60.85703125 0.90878906 -59.515625 0.91210938 C-58.13541601 0.92046534 -56.75520768 0.92893029 -55.375 0.9375 C-53.98698074 0.94251499 -52.59895978 0.9470779 -51.2109375 0.95117188 C-47.80724868 0.96299024 -44.40364561 0.97946566 -41 1 C-39.66667905 3.6666419 -40.32897967 5.16680303 -41 8 C-43.31 8.33 -45.62 8.66 -48 9 C-48 26.49 -48 43.98 -48 62 C-34.19848148 61.60761641 -34.19848148 61.60761641 -26 59 C-25.34 56.03 -24.68 53.06 -24 50 C-20 49 -20 49 -17 49 C-16.67 49.66 -16.34 50.32 -16 51 C-15.5153125 50.030625 -15.030625 49.06125 -14.53125 48.0625 C-14.2113208 47.42272217 -13.8913916 46.78294434 -13.56176758 46.1237793 C-12.84519935 44.69047808 -12.12889698 43.25704392 -11.4128418 41.82348633 C-9.56907221 38.13313346 -7.72160508 34.44476668 -5.86328125 30.76171875 C-2.07604681 23.24441567 1.6044711 15.70523865 5 8 C3.35 8 1.7 8 0 8 C-1.125 2.25 -1.125 2.25 0 0 Z M10 16 C8.62978206 18.76317623 7.28169824 21.53658478 5.9375 24.3125 C5.54755859 25.09818359 5.15761719 25.88386719 4.75585938 26.69335938 C4.39169922 27.45068359 4.02753906 28.20800781 3.65234375 28.98828125 C3.14175415 30.03302612 3.14175415 30.03302612 2.62084961 31.09887695 C1.73098049 33.18479044 1.73098049 33.18479044 3 36 C7.95 36 12.9 36 18 36 C15.66828809 25.18471608 15.66828809 25.18471608 10 16 Z " fill="#E6E6E6" transform="translate(340,104)"/>
<path d="M0 0 C7.26 0 14.52 0 22 0 C25.67900941 7.65233956 29.18006301 15.20231825 32.0625 23.1875 C34.22366864 29.16876251 36.73649412 34.81102512 39.703125 40.44921875 C41 43 41 43 42.046875 45.76953125 C42.78485869 48.1619081 42.78485869 48.1619081 45 49 C45.38671875 47.7315625 45.38671875 47.7315625 45.78125 46.4375 C47.07566263 42.78659258 48.71939846 39.42772405 50.5 36 C53.97558859 29.18539301 57.21658403 22.27945844 60.375 15.3125 C60.80361328 14.36826172 61.23222656 13.42402344 61.67382812 12.45117188 C63.53444533 8.32932611 65.34138558 4.20806981 67 0 C70.47914941 -0.02887814 73.95826831 -0.04675687 77.4375 -0.0625 C78.92733398 -0.07506836 78.92733398 -0.07506836 80.44726562 -0.08789062 C81.39150391 -0.09111328 82.33574219 -0.09433594 83.30859375 -0.09765625 C84.62041626 -0.10551147 84.62041626 -0.10551147 85.95874023 -0.11352539 C88 0 88 0 89 1 C89.04063832 2.66617115 89.042721 4.33388095 89 6 C86.69 6.66 84.38 7.32 82 8 C82.63090915 34.5154888 82.63090915 34.5154888 84 61 C85.134375 61.144375 86.26875 61.28875 87.4375 61.4375 C91 62 91 62 92 63 C92.04080783 64.99958364 92.04254356 67.00045254 92 69 C88.03092526 69.16729064 84.06164279 69.32788226 80.09204102 69.48217773 C78.74072921 69.53565802 77.38948948 69.59099194 76.03833008 69.64819336 C74.09997011 69.72993571 72.16131296 69.80453323 70.22265625 69.87890625 C68.47094116 69.94960327 68.47094116 69.94960327 66.68383789 70.02172852 C64 70 64 70 63 69 C62.625 66.125 62.625 66.125 63 63 C63.82266357 62.60449951 64.64532715 62.20899902 65.49291992 61.80151367 C66.32025635 61.20701416 67.14759277 60.61251465 68 60 C68.45571003 57.14715721 68.58612807 54.89483029 68.48828125 52.05078125 C68.48120651 51.27816452 68.47413177 50.50554779 68.46684265 49.70951843 C68.43886255 47.24285858 68.37612407 44.77847296 68.3125 42.3125 C68.2874215 40.64000676 68.26460754 38.96747791 68.24414062 37.29492188 C68.18902491 33.19573891 68.10273296 29.09825493 68 25 C67.01 25 66.02 25 65 25 C64.608125 26.258125 64.21625 27.51625 63.8125 28.8125 C62.63686466 32.34867379 61.27174556 35.69649706 59.69140625 39.0703125 C57.87149093 43.02060124 56.17405021 46.99235318 54.5703125 51.03515625 C54.16683594 52.02837891 53.76335937 53.02160156 53.34765625 54.04492188 C52.52138233 56.08420815 51.71453165 58.13145586 50.92578125 60.18554688 C47.88122067 67.54565126 47.88122067 67.54565126 43.4921875 69.80859375 C37.87189698 70.11664099 37.87189698 70.11664099 35 68 C33.20279712 64.97514722 31.96158284 61.77307986 30.6875 58.5 C29.91294267 56.59574974 29.13687097 54.69211482 28.359375 52.7890625 C27.97072266 51.82516602 27.58207031 50.86126953 27.18164062 49.86816406 C25.058969 44.71586113 22.72211796 39.65868737 20.38745117 34.59960938 C18 29.32485163 18 29.32485163 18 26 C17.01 26 16.02 26 15 26 C14.97494385 26.95366455 14.9498877 27.9073291 14.92407227 28.88989258 C14.82987929 32.42909107 14.72968769 35.96809875 14.62768555 39.50708008 C14.58438167 41.03861018 14.54270333 42.57018715 14.50268555 44.10180664 C14.44487268 46.30369182 14.38121031 48.50534211 14.31640625 50.70703125 C14.29133751 51.73374687 14.29133751 51.73374687 14.26576233 52.78120422 C14.1726445 55.77120104 13.95312563 58.14062311 13 61 C16.465 61.495 16.465 61.495 20 62 C20.625 64.3125 20.625 64.3125 21 67 C20.34 67.99 19.68 68.98 19 70 C16.66162109 70.2487793 16.66162109 70.2487793 13.7734375 70.07421875 C12.7421875 70.01943359 11.7109375 69.96464844 10.6484375 69.90820312 C9.02808594 69.79895508 9.02808594 69.79895508 7.375 69.6875 C6.28703125 69.62626953 5.1990625 69.56503906 4.078125 69.50195312 C1.38430251 69.34835798 -1.30786572 69.18046592 -4 69 C-5.125 64.25 -5.125 64.25 -4 62 C-1.67843403 61.59270772 0.6568787 61.25561323 3 61 C3.41094927 56.02376385 3.81977189 51.04735866 4.22680664 46.07080078 C4.3649249 44.38553396 4.50357768 42.70031085 4.64282227 41.01513672 C5.55123571 30.01579121 6.35866094 19.01841531 7 8 C2.545 7.01 2.545 7.01 -2 6 C-1.34 4.02 -0.68 2.04 0 0 Z " fill="#E2E2E2" transform="translate(408,11)"/>
<path d="M0 0 C8.50141292 4.25070646 16.14809407 10.15254883 20 19 C21.92661376 29.8513414 21.15385343 41.52525501 21.13037109 52.51318359 C21.12500986 55.49451786 21.13034734 58.47570153 21.13671875 61.45703125 C21.15091525 94.3585214 21.15091525 94.3585214 16 100 C9.5688124 104.75764436 2.84408503 105.8359602 -5 106 C-4.68950274 104.56206608 -4.3765224 103.1246682 -4.0625 101.6875 C-3.88847656 100.88699219 -3.71445313 100.08648437 -3.53515625 99.26171875 C-3 97 -3 97 -2 94 C-1.75358242 91.03177096 -1.56968241 88.08730075 -1.4375 85.11328125 C-1.3950415 84.16358963 -1.35258301 83.21389801 -1.30883789 82.23542786 C-0.70159697 66.56407623 -0.93352101 50.86715635 -1 35.1875 C-1.02369127 29.50605488 -1.04393449 23.82463496 -1.05593872 18.14315224 C-1.06241027 15.88675364 -1.07489214 13.63043977 -1.08764648 11.37406921 C-1.09127356 10.01004102 -1.09462596 8.64601207 -1.09765625 7.28198242 C-1.10289307 6.08925217 -1.10812988 4.89652191 -1.11352539 3.66764832 C-1 1 -1 1 0 0 Z " fill="#F2F2F2" transform="translate(173,24)"/>
<path d="M0 0 C0.33 0 0.66 0 1 0 C2.13009697 11.11368197 2.11658919 22.15481772 2.0625 33.3125 C2.05747197 35.13216022 2.05291138 36.95182179 2.04882812 38.77148438 C2.0387927 43.18105138 2.01919989 47.59042585 2 52 C10.91 51.67 19.82 51.34 29 51 C29 41.1 29 31.2 29 21 C32.47273438 20.51080078 32.47273438 20.51080078 36.015625 20.01171875 C38.29969848 19.68550608 40.58345202 19.35713407 42.8671875 19.02856445 C44.43392438 18.80430918 46.00097599 18.58223999 47.56835938 18.36254883 C56.86624414 17.05763469 65.94065745 15.54338058 75 13 C74.67 13.66 74.34 14.32 74 15 C73.01 15 72.02 15 71 15 C71.495 16.485 71.495 16.485 72 18 C71.34 18 70.68 18 70 18 C69.67 19.98 69.34 21.96 69 24 C75.27 24 81.54 24 88 24 C84.2632157 26.49118953 82.25548181 26.2065226 77.8125 26.125 C76.54019531 26.10695312 75.26789063 26.08890625 73.95703125 26.0703125 C72.98121094 26.04710937 72.00539063 26.02390625 71 26 C69.81864526 32.48349807 69.88677026 38.86214507 69.9375 45.4375 C69.94201172 46.55060547 69.94652344 47.66371094 69.95117188 48.81054688 C69.96288807 51.54042101 69.97929301 54.27018174 70 57 C67.22539586 57.92486805 65.57225406 58.12639391 62.70996094 58.12939453 C61.8434491 58.13254669 60.97693726 58.13569885 60.08416748 58.13894653 C58.6735202 58.13591019 58.6735202 58.13591019 57.234375 58.1328125 C55.75774384 58.13424759 55.75774384 58.13424759 54.25128174 58.13571167 C52.15303484 58.13639355 50.05478584 58.13453873 47.95654297 58.13037109 C44.83165351 58.12513677 41.70691551 58.13025519 38.58203125 58.13671875 C24.69812797 58.14084546 10.86456181 57.72456948 -3 57 C-4.32035976 54.35928048 -3.96816749 52.66840487 -3.74633789 49.72412109 C-3.66617935 48.6231308 -3.58602081 47.5221405 -3.50343323 46.38778687 C-3.41077682 45.19505157 -3.31812042 44.00231628 -3.22265625 42.7734375 C-3.13245712 41.55548492 -3.042258 40.33753235 -2.94932556 39.08267212 C-2.65904359 35.17969521 -2.3608571 31.27736712 -2.0625 27.375 C-1.86471479 24.73441387 -1.66744244 22.09378926 -1.47070312 19.453125 C-0.98642632 12.96829135 -0.49565261 6.48397354 0 0 Z " fill="#F3F3F3" transform="translate(66,104)"/>
<path d="M0 0 C5.71082747 -0.07443429 11.4213694 -0.12873634 17.13256836 -0.16479492 C19.07337364 -0.17983491 21.0141452 -0.20027214 22.95483398 -0.22631836 C25.75252632 -0.26291295 28.54976733 -0.27977448 31.34765625 -0.29296875 C32.2083522 -0.30845261 33.06904816 -0.32393646 33.95582581 -0.33988953 C40.44429022 -0.3416818 45.42723966 0.56630779 50.3125 5.1875 C54.22604982 11.71008304 54.42446527 17.0463192 52.8125 24.3203125 C51.02350651 30.22055065 48.39551278 34.45599925 43.1875 37.875 C36.62155944 41.19146998 29.20579927 41.33391771 22 42 C22 48.6 22 55.2 22 62 C23.98 62 25.96 62 28 62 C29.0625 63.8125 29.0625 63.8125 30 66 C29.67 66.99 29.34 67.98 29 69 C19.44356004 70.05346582 9.47650359 71.10588969 0 69 C-0.495 66.03 -0.495 66.03 -1 63 C1.31 62.34 3.62 61.68 6 61 C6.90054459 55.620431 7.14663226 50.44503091 7.1328125 44.99609375 C7.13376923 44.15458267 7.13472595 43.31307159 7.13571167 42.44606018 C7.13638866 40.67701136 7.13456811 38.90795999 7.13037109 37.13891602 C7.12500927 34.44216302 7.13033591 31.74557605 7.13671875 29.04882812 C7.13605801 27.3229163 7.13477695 25.59700458 7.1328125 23.87109375 C7.13483673 23.07094345 7.13686096 22.27079315 7.13894653 21.44639587 C7.12122592 17.18645616 6.84367153 13.19615575 6 9 C4.02 8.34 2.04 7.68 0 7 C-1.125 2.25 -1.125 2.25 0 0 Z M22.30566406 8.17358398 C20.58174894 10.5850666 20.64103147 12.08720568 20.671875 15.03515625 C20.67703125 16.00904297 20.6821875 16.98292969 20.6875 17.98632812 C20.708125 19.00146484 20.72875 20.01660156 20.75 21.0625 C20.75515625 22.08150391 20.7603125 23.10050781 20.765625 24.15039062 C20.61402041 29.23994767 20.61402041 29.23994767 22 34 C26.4554398 33.80586319 30.01999588 33.56298109 33.9375 31.3125 C37.28978963 27.55387223 38.09007622 23.85862618 38.3125 18.9375 C37.99257877 14.9064925 37.54286254 13.08776165 35 10 C31.6030553 7.57361093 25.94714787 5.6513055 22.30566406 8.17358398 Z " fill="#E4E4E4" transform="translate(218,105)"/>
<path d="M0 0 C1.67542976 0.28604898 3.34385343 0.61781233 5 1 C4.88501733 3.20887757 4.75756495 5.41710787 4.625 7.625 C4.55539062 8.85476562 4.48578125 10.08453125 4.4140625 11.3515625 C4.0185513 14.83653855 3.23738151 17.73049601 2 21 C0.35 21 -1.3 21 -3 21 C-3.25394531 20.28972656 -3.50789063 19.57945313 -3.76953125 18.84765625 C-4.11371094 17.92855469 -4.45789063 17.00945313 -4.8125 16.0625 C-5.14894531 15.14597656 -5.48539062 14.22945312 -5.83203125 13.28515625 C-6.83409094 10.6659576 -6.83409094 10.6659576 -10 10 C-15.56718965 9.45568098 -15.56718965 9.45568098 -20.5 11.5625 C-22.66544082 15.08134133 -22.85255191 16.95037841 -22 21 C-15.31752033 26.70795138 -6.19547993 29.1057225 2 32 C2 32.66 2 33.32 2 34 C2.66 34 3.32 34 4 34 C7.37688469 39.80402056 9.14424867 44.26037532 8 51 C4.99706021 60.39184741 -0.34341518 66.37103461 -9 71 C-16.05377253 73.64359859 -24.42472992 73.94995014 -31.765625 72.42578125 C-32.50296875 72.28527344 -33.2403125 72.14476563 -34 72 C-34.33 72.33 -34.66 72.66 -35 73 C-36.99958364 73.04080783 -39.00045254 73.04254356 -41 73 C-41 72.34 -41 71.68 -41 71 C-55.52 71 -70.04 71 -85 71 C-85 70.67 -85 70.34 -85 70 C-70.48 69.67 -55.96 69.34 -41 69 C-41.33 67.35 -41.66 65.7 -42 64 C-41.34 64 -40.68 64 -40 64 C-39.81824219 62.73542969 -39.81824219 62.73542969 -39.6328125 61.4453125 C-39.46523438 60.34960938 -39.29765625 59.25390625 -39.125 58.125 C-38.96257812 57.03445312 -38.80015625 55.94390625 -38.6328125 54.8203125 C-38 52 -38 52 -36 50 C-34.68 50 -33.36 50 -32 50 C-31.65388672 51.15628906 -31.65388672 51.15628906 -31.30078125 52.3359375 C-30.81158203 53.84027344 -30.81158203 53.84027344 -30.3125 55.375 C-29.99925781 56.37273437 -29.68601562 57.37046875 -29.36328125 58.3984375 C-28.21401933 61.17322132 -28.21401933 61.17322132 -25.5703125 62.33984375 C-20.30610153 63.69189793 -15.27014472 63.02832092 -10 62 C-9.4055575 60.51236955 -8.85102325 59.00877399 -8.3125 57.5 C-7.99925781 56.6646875 -7.68601562 55.829375 -7.36328125 54.96875 C-6.84286743 50.71590587 -7.61920889 47.58089163 -10 44 C-12.55359629 42.09693965 -15.28633986 41.00473711 -18.25 39.875 C-25.53748867 36.96254816 -31.30484187 33.70584243 -36 27.25 C-37.61659301 21.99607272 -37.26317178 17.12113804 -35.1953125 12.01171875 C-31.75857527 6.35489945 -26.21909765 2.91251012 -20 1 C-14.95305111 0.48984668 -9.926488 0.66668257 -4.8671875 0.88671875 C-3.59101563 0.92410156 -2.31484375 0.96148437 -1 1 C-0.67 0.67 -0.34 0.34 0 0 Z " fill="#E5E5E5" transform="translate(396,9)"/>
<path d="M0 0 C1.01707031 0.10828125 1.01707031 0.10828125 2.0546875 0.21875 C7.76651579 0.78835061 13.17927646 1.03032082 18.90625 0.546875 C21 1 21 1 22.62890625 3.109375 C24.09388241 6.19792873 25.30871063 9.27277269 26.4375 12.5 C26.6550293 13.11891113 26.87255859 13.73782227 27.09667969 14.37548828 C28.41926689 18.18108243 29.61537363 22.01001702 30.75 25.875 C32.75212386 32.51578941 35.14335288 39.00084214 37.5625 45.5 C37.95083008 46.55171387 38.33916016 47.60342773 38.73925781 48.68701172 C39.1153418 49.68748535 39.49142578 50.68795898 39.87890625 51.71875 C40.2147876 52.61529297 40.55066895 53.51183594 40.89672852 54.43554688 C43.24491778 60.10854015 43.24491778 60.10854015 48.1875 63.3125 C49.115625 63.539375 50.04375 63.76625 51 64 C51.042721 65.66611905 51.04063832 67.33382885 51 69 C48.00914918 71.99085082 40.51718858 71.09309681 36.625 71.125 C31.34059683 71.08834518 26.2339763 70.7096917 21 70 C21 68.02 21 66.04 21 64 C23.475 63.505 23.475 63.505 26 63 C25.18979911 60.20764713 24.3769488 57.41611379 23.5625 54.625 C23.33240234 53.8309375 23.10230469 53.036875 22.86523438 52.21875 C22.53168945 51.07792969 22.53168945 51.07792969 22.19140625 49.9140625 C21.98717041 49.2123291 21.78293457 48.5105957 21.57250977 47.78759766 C21.02623679 45.92489242 21.02623679 45.92489242 20 44 C16.37506666 43.94212216 12.75025143 43.9064458 9.125 43.875 C8.09246094 43.85824219 7.05992187 43.84148437 5.99609375 43.82421875 C5.00996094 43.81777344 4.02382813 43.81132812 3.0078125 43.8046875 C2.09660645 43.79421387 1.18540039 43.78374023 0.24658203 43.77294922 C-2.20290436 43.78129007 -2.20290436 43.78129007 -4 46 C-3.67 44.68 -3.34 43.36 -3 42 C-0.03 41.34 2.94 40.68 6 40 C4.68 39.34 3.36 38.68 2 38 C3 37 3 37 6.59765625 36.90234375 C8.08596867 36.9090178 9.57426432 36.92097817 11.0625 36.9375 C12.20041992 36.94426758 12.20041992 36.94426758 13.36132812 36.95117188 C15.24091871 36.9629932 17.12046899 36.98092922 19 37 C19 36.01 19 35.02 19 34 C18.34 34 17.68 34 17 34 C14.55591476 26.6450086 12.52541447 19.7498635 12 12 C11.071875 11.7834375 11.071875 11.7834375 10.125 11.5625 C8 11 8 11 6 10 C6 9.01 6 8.02 6 7 C4.02 7 2.04 7 0 7 C-1.125 2.25 -1.125 2.25 0 0 Z " fill="#E1E1E1" transform="translate(340,104)"/>
<path d="M0 0 C0.33 0.99 0.66 1.98 1 3 C3.01508358 3.73323796 3.01508358 3.73323796 5 4 C4.86722656 4.59167969 4.73445313 5.18335937 4.59765625 5.79296875 C4.42105469 6.58316406 4.24445313 7.37335938 4.0625 8.1875 C3.88847656 8.96480469 3.71445312 9.74210937 3.53515625 10.54296875 C3.35855469 11.35378906 3.18195313 12.16460937 3 13 C2.81953125 13.78632812 2.6390625 14.57265625 2.453125 15.3828125 C0.81344795 24.85336096 1.47607011 33.50192336 6 42 C6.5775 43.093125 7.155 44.18625 7.75 45.3125 C11.47230219 49.75858318 16.24188733 52.93612013 22 54 C28.5201482 54.56791911 33.18324442 53.9654048 39 51 C40.6642135 50.32723284 42.32986582 49.65793165 44 49 C45.5625 50.25 45.5625 50.25 47 52 C46.91796875 53.91015625 46.91796875 53.91015625 46 56 C43.671875 57.66796875 43.671875 57.66796875 40.75 59.1875 C39.31914062 59.95126953 39.31914062 59.95126953 37.859375 60.73046875 C29.21200867 64.5698049 16.76850496 64.42858515 7.671875 62.17578125 C5.34297103 61.23794417 3.18794376 60.2259644 1 59 C-0.33194542 58.33056469 -1.66487938 57.66308004 -3 57 C-3 56.34 -3 55.68 -3 55 C-3.99 54.67 -4.98 54.34 -6 54 C-6 53.34 -6 52.68 -6 52 C-6.66 52 -7.32 52 -8 52 C-8.82165509 50.29605107 -9.63190645 48.58660102 -10.4375 46.875 C-10.88996094 45.92367187 -11.34242188 44.97234375 -11.80859375 43.9921875 C-15.83195182 33.88762263 -15.39717681 21.24731511 -11.203125 11.30859375 C-8.50324621 6.12798218 -5.2694499 2.7100028 0 0 Z " fill="#E3E3E3" transform="translate(398,112)"/>
<path d="M0 0 C-0.33 9.57 -0.66 19.14 -1 29 C-3.5575 29.495 -6.115 29.99 -8.75 30.5 C-9.54889648 30.65662109 -10.34779297 30.81324219 -11.17089844 30.97460938 C-14.53538486 31.61530251 -17.5619158 32 -21 32 C-21 31.34 -21 30.68 -21 30 C-20.34 30 -19.68 30 -19 30 C-19.495 28.515 -19.495 28.515 -20 27 C-22.03935556 26.14590557 -22.03935556 26.14590557 -24.55859375 25.68359375 C-25.50283203 25.47669922 -26.44707031 25.26980469 -27.41992188 25.05664062 C-28.41572266 24.85232422 -29.41152344 24.64800781 -30.4375 24.4375 C-31.39849609 24.22931641 -32.35949219 24.02113281 -33.34960938 23.80664062 C-37.19785063 22.97886654 -41.04459037 22.17247566 -44.91845703 21.47314453 C-46.27559814 21.22540283 -46.27559814 21.22540283 -47.66015625 20.97265625 C-48.87844116 20.76201538 -48.87844116 20.76201538 -50.12133789 20.54711914 C-50.74129639 20.36656982 -51.36125488 20.18602051 -52 20 C-52.33 19.34 -52.66 18.68 -53 18 C-22.61847216 5.50996452 -22.61847216 5.50996452 -10 1 C-8.95457031 0.59910156 -7.90914062 0.19820312 -6.83203125 -0.21484375 C-4 -1 -4 -1 0 0 Z " fill="#EFEFEF" transform="translate(120,56)"/>
<path d="M0 0 C1.65 0 3.3 0 5 0 C5.34611328 1.15628906 5.34611328 1.15628906 5.69921875 2.3359375 C6.18841797 3.84027344 6.18841797 3.84027344 6.6875 5.375 C7.00074219 6.37273437 7.31398438 7.37046875 7.63671875 8.3984375 C8.78598067 11.17322132 8.78598067 11.17322132 11.4296875 12.33984375 C16.46446445 13.63297035 22.02950658 13.50270731 27 12 C28.45291273 9.53744315 28.45291273 9.53744315 29 7 C30.231394 9.46278801 30.07159196 11.2795055 30 14 C30.99 14.495 30.99 14.495 32 15 C31.67 15.66 31.34 16.32 31 17 C31.66 17.33 32.32 17.66 33 18 C24.19538201 22.80455042 15.21271436 24.48109184 5.22265625 22.4296875 C4.12244141 22.21699219 4.12244141 22.21699219 3 22 C2.505 22.495 2.505 22.495 2 23 C0.00041636 23.04080783 -2.00045254 23.04254356 -4 23 C-4 22.34 -4 21.68 -4 21 C-18.52 21 -33.04 21 -48 21 C-48 20.67 -48 20.34 -48 20 C-33.48 19.67 -18.96 19.34 -4 19 C-4.33 17.35 -4.66 15.7 -5 14 C-4.34 14 -3.68 14 -3 14 C-2.86722656 13.15695313 -2.73445313 12.31390625 -2.59765625 11.4453125 C-2.42105469 10.34960938 -2.24445313 9.25390625 -2.0625 8.125 C-1.88847656 7.03445312 -1.71445312 5.94390625 -1.53515625 4.8203125 C-1 2 -1 2 0 0 Z " fill="#CDCDCD" transform="translate(359,59)"/>
<path d="M0 0 C1.67542976 0.28604898 3.34385343 0.61781233 5 1 C4.88501733 3.20887757 4.75756495 5.41710787 4.625 7.625 C4.55539062 8.85476562 4.48578125 10.08453125 4.4140625 11.3515625 C4.0185513 14.83653855 3.23738151 17.73049601 2 21 C0.35 21 -1.3 21 -3 21 C-3.25394531 20.28972656 -3.50789063 19.57945313 -3.76953125 18.84765625 C-4.11371094 17.92855469 -4.45789063 17.00945313 -4.8125 16.0625 C-5.14894531 15.14597656 -5.48539062 14.22945312 -5.83203125 13.28515625 C-6.83409094 10.6659576 -6.83409094 10.6659576 -10 10 C-15.54515027 9.44415983 -15.54515027 9.44415983 -20.4375 11.5625 C-22.43656214 14.68103694 -22.71860476 17.34186183 -23 21 C-23.33 21 -23.66 21 -24 21 C-24.125 13.375 -24.125 13.375 -23 10 C-23.66 10 -24.32 10 -25 10 C-25 8.68 -25 7.36 -25 6 C-26.32 6.33 -27.64 6.66 -29 7 C-26.00000357 3.50000417 -22.40271747 1.23980308 -17.74707031 0.77514648 C-15.2210428 0.74122152 -12.71217742 0.78708542 -10.1875 0.875 C-8.47275434 0.91815422 -6.75790524 0.95743431 -5.04296875 0.9921875 C-4.29039795 1.01651855 -3.53782715 1.04084961 -2.76245117 1.06591797 C-0.97231451 1.19904268 -0.97231451 1.19904268 0 0 Z " fill="#CBCBCB" transform="translate(396,9)"/>
<path d="M0 0 C1.20591797 -0.00128906 2.41183594 -0.00257812 3.65429688 -0.00390625 C4.92466797 -0.00003906 6.19503906 0.00382812 7.50390625 0.0078125 C8.77041016 0.00394531 10.03691406 0.00007813 11.34179688 -0.00390625 C12.54900391 -0.00261719 13.75621094 -0.00132813 15 0 C16.11431396 0.00112793 17.22862793 0.00225586 18.37670898 0.00341797 C21.06640625 0.1328125 21.06640625 0.1328125 23.06640625 1.1328125 C23.42008646 8.25881383 23.02311973 13.60340356 20.06640625 20.1328125 C18.41640625 19.8028125 16.76640625 19.4728125 15.06640625 19.1328125 C14.93105469 18.51792969 14.79570312 17.90304688 14.65625 17.26953125 C13.50024645 12.43498485 13.50024645 12.43498485 10.30859375 8.8671875 C8.18338562 7.94606741 8.18338562 7.94606741 5.06640625 7.1328125 C5.06640625 6.4728125 5.06640625 5.8128125 5.06640625 5.1328125 C0.77640625 5.1328125 -3.51359375 5.1328125 -7.93359375 5.1328125 C-6.46459119 -0.74319775 -5.72988662 0.00580578 0 0 Z " fill="#E8E8E8" transform="translate(420.93359375,104.8671875)"/>
<path d="M0 0 C0.66 0.33 1.32 0.66 2 1 C0.68 1.99 -0.64 2.98 -2 4 C-1.30519531 3.83628906 -0.61039063 3.67257812 0.10546875 3.50390625 C3.2352816 2.95904004 6.13798083 2.90261517 9.3125 2.9375 C10.91544922 2.95103516 10.91544922 2.95103516 12.55078125 2.96484375 C13.35902344 2.97644531 14.16726562 2.98804688 15 3 C15 3.33 15 3.66 15 4 C14.31035156 4.02578125 13.62070313 4.0515625 12.91015625 4.078125 C6.03209244 4.49326191 1.07644172 5.85606193 -5 9 C-6.06863281 9.52335937 -7.13726562 10.04671875 -8.23828125 10.5859375 C-14.63762979 13.72569278 -20.97356621 16.97714142 -27.27734375 20.3046875 C-28.37626953 20.8829126 -29.47519531 21.4611377 -30.60742188 22.05688477 C-32.78510665 23.2049589 -34.95973088 24.35886208 -37.13085938 25.51928711 C-42.9951902 28.60975974 -48.64260064 31.11067902 -55 33 C-52.11030576 29.8179367 -49.45334693 28.0449633 -45.5625 26.25 C-39.49874447 23.3126412 -33.86014392 19.92750364 -28.15869141 16.34716797 C-23.41662855 13.38780325 -18.64448557 10.47737002 -13.875 7.5625 C-12.8543042 6.93472656 -11.8336084 6.30695312 -10.78198242 5.66015625 C-9.8201001 5.07234375 -8.85821777 4.48453125 -7.8671875 3.87890625 C-7.00206543 3.3485376 -6.13694336 2.81816895 -5.24560547 2.27172852 C-3 1 -3 1 0 0 Z " fill="#A4A4A4" transform="translate(131,7)"/>
<path d="M0 0 C1.08345703 0.03544922 2.16691406 0.07089844 3.28320312 0.10742188 C4.32025391 0.15060547 5.35730469 0.19378906 6.42578125 0.23828125 C7.83404175 0.29495972 7.83404175 0.29495972 9.27075195 0.3527832 C11.6875 0.6875 11.6875 0.6875 14.6875 2.6875 C14.0275 2.6875 13.3675 2.6875 12.6875 2.6875 C12.3575 5.6575 12.0275 8.6275 11.6875 11.6875 C11.3575 11.6875 11.0275 11.6875 10.6875 11.6875 C11.0175 8.7175 11.3475 5.7475 11.6875 2.6875 C2.1175 2.6875 -7.4525 2.6875 -17.3125 2.6875 C-17.6425 3.6775 -17.9725 4.6675 -18.3125 5.6875 C-14.3525 6.0175 -10.3925 6.3475 -6.3125 6.6875 C-6.3125 7.0175 -6.3125 7.3475 -6.3125 7.6875 C-7.364375 7.72617188 -7.364375 7.72617188 -8.4375 7.765625 C-17.83988524 8.32772412 -24.02646 10.615705 -30.3125 17.6875 C-30.6425 15.7075 -30.9725 13.7275 -31.3125 11.6875 C-31.9725 11.6875 -32.6325 11.6875 -33.3125 11.6875 C-33.6425 11.0275 -33.9725 10.3675 -34.3125 9.6875 C-36.2925 10.6775 -36.2925 10.6775 -38.3125 11.6875 C-27.13460597 0.19910891 -15.49663735 -0.68519354 0 0 Z " fill="#AFAFAF" transform="translate(432.3125,103.3125)"/>
<path d="M0 0 C2.8125 -0.25 2.8125 -0.25 6 0 C7.6875 1.9375 7.6875 1.9375 9 4 C9.99 4.33 10.98 4.66 12 5 C12.33 7.31 12.66 9.62 13 12 C12.01 11.67 11.02 11.34 10 11 C8.82866942 13.45620851 7.66278278 15.91474917 6.5 18.375 C6.16613281 19.07367188 5.83226562 19.77234375 5.48828125 20.4921875 C3.64790602 24.08827999 3.64790602 24.08827999 3 28 C5.29160319 28.02692484 7.58329546 28.04636124 9.875 28.0625 C11.78925781 28.07990234 11.78925781 28.07990234 13.7421875 28.09765625 C16.88664652 28.23176569 16.88664652 28.23176569 19 27 C19 27.99 19 28.98 19 30 C12.73 30 6.46 30 0 30 C0.60855027 26.95724864 1.22389502 23.99354776 2 21 C0.35 21 -1.3 21 -3 21 C-0.83836487 14.06001352 1.8936214 7.56882431 5 1 C3.35 1 1.7 1 0 1 C0 0.67 0 0.34 0 0 Z " fill="#B4B4B4" transform="translate(340,111)"/>
<path d="M0 0 C3.465 1.98 3.465 1.98 7 4 C6.01 4.66 5.02 5.32 4 6 C4 5.34 4 4.68 4 4 C3.01 4.495 3.01 4.495 2 5 C1.98786972 6.50883759 1.98786972 6.50883759 1.97549438 8.04815674 C1.8980353 17.5242206 1.81029655 27.00014084 1.71247292 36.476017 C1.66251081 41.34775185 1.6161807 46.21946503 1.578125 51.09130859 C1.5412712 55.79223401 1.49491088 60.49297805 1.44193649 65.19374847 C1.42339307 66.98786998 1.40828491 68.78203037 1.39665604 70.57621002 C1.37979272 73.08777978 1.35075761 75.5989342 1.31884766 78.11035156 C1.31668747 78.85338028 1.31452728 79.596409 1.31230164 80.36195374 C1.25224265 84.05822258 1.04372358 86.85769942 -1 90 C-1.02312228 78.41311598 -1.0409145 66.82623741 -1.05181217 55.23933506 C-1.05704125 49.85966238 -1.06413935 44.48000542 -1.07543945 39.1003418 C-1.08626745 33.91325157 -1.09227665 28.72617651 -1.09487724 23.53907585 C-1.09673165 21.5554372 -1.10035256 19.57179942 -1.10573006 17.58816719 C-1.11293932 14.81990864 -1.11399099 12.05171362 -1.11352539 9.28344727 C-1.11712067 8.45482681 -1.12071594 7.62620636 -1.12442017 6.7724762 C-1.11405216 1.11405216 -1.11405216 1.11405216 0 0 Z " fill="#838383" transform="translate(173,24)"/>
<path d="M0 0 C-1.32 0.33 -2.64 0.66 -4 1 C-3.67 1.99 -3.34 2.98 -3 4 C-3.66 4 -4.32 4 -5 4 C-5.33 5.98 -5.66 7.96 -6 10 C0.27 10 6.54 10 13 10 C9.2632157 12.49118953 7.25548181 12.2065226 2.8125 12.125 C1.54019531 12.10695312 0.26789063 12.08890625 -1.04296875 12.0703125 C-2.50669922 12.03550781 -2.50669922 12.03550781 -4 12 C-5.23839599 18.65637843 -5.09139136 25.2471936 -5 32 C-5.66 32 -6.32 32 -7 32 C-7 23.42 -7 14.84 -7 6 C-8.65 6.33 -10.3 6.66 -12 7 C-12 6.34 -12 5.68 -12 5 C-15.96 5 -19.92 5 -24 5 C-24 4.67 -24 4.34 -24 4 C-22.91460937 3.80664062 -21.82921875 3.61328125 -20.7109375 3.4140625 C-19.26558332 3.15127083 -17.82027312 2.88823714 -16.375 2.625 C-15.66214844 2.49867187 -14.94929688 2.37234375 -14.21484375 2.2421875 C-10.88030578 1.63034567 -7.82114269 0.93873623 -4.6015625 -0.1640625 C-2 -1 -2 -1 0 0 Z " fill="#AAAAAA" transform="translate(141,118)"/>
<path d="M0 0 C1.17175781 0.01353516 1.17175781 0.01353516 2.3671875 0.02734375 C2.94726562 0.03894531 3.52734375 0.05054687 4.125 0.0625 C4.125 0.3925 4.125 0.7225 4.125 1.0625 C-2.31 1.5575 -2.31 1.5575 -8.875 2.0625 C-8.86714478 3.41782837 -8.86714478 3.41782837 -8.85913086 4.80053711 C-8.84212314 8.14201489 -8.82956667 11.48344692 -8.82006836 14.82495117 C-8.81502899 16.27320073 -8.80819747 17.72144517 -8.79956055 19.16967773 C-8.78747753 21.24724588 -8.78176789 23.32474697 -8.77734375 25.40234375 C-8.76948853 27.27974243 -8.76948853 27.27974243 -8.76147461 29.19506836 C-8.875 32.0625 -8.875 32.0625 -9.875 33.0625 C-12.02058827 33.15025605 -14.16904421 33.16945219 -16.31640625 33.16015625 C-17.62158203 33.15693359 -18.92675781 33.15371094 -20.27148438 33.15039062 C-21.6601569 33.14203401 -23.04882877 33.13356905 -24.4375 33.125 C-25.83007656 33.11998666 -27.22265481 33.11542347 -28.61523438 33.11132812 C-32.03517451 33.09949442 -35.4550925 33.08155831 -38.875 33.0625 C-38.875 26.7925 -38.875 20.5225 -38.875 14.0625 C-38.545 14.0625 -38.215 14.0625 -37.875 14.0625 C-37.875 20.0025 -37.875 25.9425 -37.875 32.0625 C-28.965 31.7325 -20.055 31.4025 -10.875 31.0625 C-10.875 21.1625 -10.875 11.2625 -10.875 1.0625 C-6.91591662 0.40265277 -3.87795662 -0.05875692 0 0 Z " fill="#6C6C6C" transform="translate(105.875,123.9375)"/>
<path d="M0 0 C1.65 0 3.3 0 5 0 C3.68 0.33 2.36 0.66 1 1 C1 2.65 1 4.3 1 6 C2.7015625 5.9690625 2.7015625 5.9690625 4.4375 5.9375 C8 6 8 6 9 7 C9.09881593 8.71318946 9.12798969 10.43044803 9.12939453 12.14648438 C9.13254669 13.24432251 9.13569885 14.34216064 9.13894653 15.4732666 C9.1369223 16.66802612 9.13489807 17.86278564 9.1328125 19.09375 C9.13376923 20.31074585 9.13472595 21.5277417 9.13571167 22.78161621 C9.13639372 25.36075899 9.13453772 27.93990347 9.13037109 30.51904297 C9.12502322 34.48278636 9.13031529 38.44641642 9.13671875 42.41015625 C9.13605797 44.90885442 9.13477682 47.40755252 9.1328125 49.90625 C9.13483673 51.10100952 9.13686096 52.29576904 9.13894653 53.5267334 C9.13579437 54.62457153 9.13264221 55.72240967 9.12939453 56.85351562 C9.12820114 58.31126404 9.12820114 58.31126404 9.12698364 59.79846191 C9 62 9 62 8 63 C6.33382885 63.04063832 4.66611905 63.042721 3 63 C4.98 62.505 4.98 62.505 7 62 C7 44.18 7 26.36 7 8 C4.69 7.67 2.38 7.34 0 7 C-0.93423645 3.98968256 -1.04449911 3.13349732 0 0 Z " fill="#818181" transform="translate(327,11)"/>
<path d="M0 0 C0.33 0 0.66 0 1 0 C1 2.97 1 5.94 1 9 C0.030625 9.433125 -0.93875 9.86625 -1.9375 10.3125 C-5.27731765 11.7014861 -5.27731765 11.7014861 -6 15 C10.5 15 27 15 44 15 C44.33 14.01 44.66 13.02 45 12 C45 13.32 45 14.64 45 16 C40.42935447 16.89148814 36.01684331 17.15498192 31.375 17.125 C30.62879395 17.12306641 29.88258789 17.12113281 29.11376953 17.11914062 C17.07085438 17.03300016 5.03212871 16.48344522 -7 16 C-7.625 13.625 -7.625 13.625 -8 11 C-5.64046906 8.64046906 -4.22104383 8.50858587 -1 8 C-0.67 5.36 -0.34 2.72 0 0 Z " fill="#7E7E7E" transform="translate(452,158)"/>
<path d="M0 0 C1.32 0.33 2.64 0.66 4 1 C3.67 10.57 3.34 20.14 3 30 C0.4425 30.495 -2.115 30.99 -4.75 31.5 C-5.54889648 31.65662109 -6.34779297 31.81324219 -7.17089844 31.97460938 C-10.53538486 32.61530251 -13.5619158 33 -17 33 C-17 32.34 -17 31.68 -17 31 C-16.34 31 -15.68 31 -15 31 C-15.66868314 27.88667752 -15.66868314 27.88667752 -18.0625 26.8125 C-18.701875 26.544375 -19.34125 26.27625 -20 26 C-18.3745692 26.14095064 -16.74965949 26.28792087 -15.125 26.4375 C-14.22007813 26.51871094 -13.31515625 26.59992188 -12.3828125 26.68359375 C-10 27 -10 27 -8 28 C-8 28.66 -8 29.32 -8 30 C-4.7 29.67 -1.4 29.34 2 29 C2 19.76 2 10.52 2 1 C1.34 0.67 0.68 0.34 0 0 Z " fill="#8C8C8C" transform="translate(116,55)"/>
<path d="M0 0 C2.33294775 -0.04241723 4.66702567 -0.04092937 7 0 C8.69295345 1.69295345 8.12749729 3.82896484 8.12939453 6.14648438 C8.13254669 7.24432251 8.13569885 8.34216064 8.13894653 9.4732666 C8.1369223 10.66802612 8.13489807 11.86278564 8.1328125 13.09375 C8.13376923 14.31074585 8.13472595 15.5277417 8.13571167 16.78161621 C8.13639372 19.36075899 8.13453772 21.93990347 8.13037109 24.51904297 C8.12502322 28.48278636 8.13031529 32.44641642 8.13671875 36.41015625 C8.13605797 38.90885442 8.13477682 41.40755252 8.1328125 43.90625 C8.13483673 45.10100952 8.13686096 46.29576904 8.13894653 47.5267334 C8.13579437 48.62457153 8.13264221 49.72240967 8.12939453 50.85351562 C8.12820114 52.31126404 8.12820114 52.31126404 8.12698364 53.79846191 C8 56 8 56 7 57 C5.00041636 57.04080783 2.99954746 57.04254356 1 57 C1 56.67 1 56.34 1 56 C3.475 55.505 3.475 55.505 6 55 C6.02529174 47.77344508 6.04284219 40.5469015 6.05493164 33.3203125 C6.05996989 30.86034722 6.0668006 28.40038495 6.07543945 25.94042969 C6.08752723 22.41079975 6.09323329 18.88120931 6.09765625 15.3515625 C6.10281754 14.24632233 6.10797882 13.14108215 6.11329651 12.00234985 C6.11337204 10.98144257 6.11344757 9.96053528 6.11352539 8.90869141 C6.115746 8.00712311 6.11796661 7.10555481 6.12025452 6.17666626 C6.1419285 3.95286252 6.1419285 3.95286252 5 2 C2.47266765 1.34444881 2.47266765 1.34444881 0 1 C0 0.67 0 0.34 0 0 Z " fill="#424242" transform="translate(270,111)"/>
<path d="M0 0 C2.13476562 0.94335937 2.13476562 0.94335937 4 2 C0.69356828 3.78233448 -2.62116054 5.54867895 -5.9375 7.3125 C-6.86369141 7.81201172 -7.78988281 8.31152344 -8.74414062 8.82617188 C-14.39787057 11.82165686 -19.87040485 14.15797807 -26 16 C-23.06877545 12.76315014 -20.31972681 10.96726028 -16.375 9.125 C-11.353228 6.73075662 -6.75433185 4.03294566 -2.15625 0.90625 C-1.4446875 0.6071875 -0.733125 0.308125 0 0 Z " fill="#9F9F9F" transform="translate(102,24)"/>
<path d="M0 0 C0.66 0.33 1.32 0.66 2 1 C0.68 1.99 -0.64 2.98 -2 4 C-0.95779297 3.75443359 -0.95779297 3.75443359 0.10546875 3.50390625 C3.2352816 2.95904004 6.13798083 2.90261517 9.3125 2.9375 C10.91544922 2.95103516 10.91544922 2.95103516 12.55078125 2.96484375 C13.35902344 2.97644531 14.16726562 2.98804688 15 3 C15 3.33 15 3.66 15 4 C14.31035156 4.02578125 13.62070313 4.0515625 12.91015625 4.078125 C6.82858771 4.44518812 2.18630008 5.42128929 -3.22265625 8.2578125 C-3.80917969 8.50273437 -4.39570312 8.74765625 -5 9 C-5.66 8.67 -6.32 8.34 -7 8 C-6.34 7.01 -5.68 6.02 -5 5 C-6.98 5.66 -8.96 6.32 -11 7 C-8.84658594 4.65082102 -6.78332063 3.17556996 -3.9375 1.75 C-3.24527344 1.39421875 -2.55304688 1.0384375 -1.83984375 0.671875 C-1.23269531 0.45015625 -0.62554687 0.2284375 0 0 Z " fill="#7F7F7F" transform="translate(131,7)"/>
<path d="M0 0 C2.97 0 5.94 0 9 0 C9 0.33 9 0.66 9 1 C7.02 1.33 5.04 1.66 3 2 C2.34 9.59 1.68 17.18 1 25 C0.67 25 0.34 25 0 25 C0 16.75 0 8.5 0 0 Z " fill="#656565" transform="translate(465,140)"/>
<path d="M0 0 C0.33 0 0.66 0 1 0 C1.67453101 7.68483539 2.1567564 15.28410183 2 23 C1.01 23.33 0.02 23.66 -1 24 C-1.14525497 15.94641862 -0.71413279 8.02124152 0 0 Z " fill="#9A9A9A" transform="translate(66,104)"/>
<path d="M0 0 C0.66 0 1.32 0 2 0 C2.02886338 4.47915328 2.04675187 8.95828291 2.0625 13.4375 C2.07087891 14.71689453 2.07925781 15.99628906 2.08789062 17.31445312 C2.09111328 18.52939453 2.09433594 19.74433594 2.09765625 20.99609375 C2.10289307 22.12200928 2.10812988 23.2479248 2.11352539 24.40795898 C2 27 2 27 1 28 C-0.66617115 28.04063832 -2.33388095 28.042721 -4 28 C-3.34805664 27.62383545 -2.69611328 27.2476709 -2.02441406 26.86010742 C0.25040775 25.14997838 0.25040775 25.14997838 0.45410156 22.36450195 C0.4331543 21.33284912 0.41220703 20.30119629 0.390625 19.23828125 C0.37773437 18.12001953 0.36484375 17.00175781 0.3515625 15.84960938 C0.30128906 14.09874023 0.30128906 14.09874023 0.25 12.3125 C0.23195313 11.13365234 0.21390625 9.95480469 0.1953125 8.74023438 C0.14811859 5.82601074 0.08229077 2.91340969 0 0 Z " fill="#7B7B7B" transform="translate(476,46)"/>
<path d="M0 0 C-1.45945946 4.62162162 -1.45945946 4.62162162 -3.875 6.3125 C-6 7 -6 7 -10 7 C-9.375 4.625 -9.375 4.625 -8 2 C-5.23085693 0.78849991 -3.03028259 0 0 0 Z " fill="#BFBFBF" transform="translate(126,12)"/>
<path d="M0 0 C0.66 0.33 1.32 0.66 2 1 C0.47793991 3.62901288 -0.84365964 5.84365964 -3 8 C-3.46396693 10.89223503 -3.46396693 10.89223503 -3.625 14.125 C-3.69976562 15.22070312 -3.77453125 16.31640625 -3.8515625 17.4453125 C-3.90054687 18.28835937 -3.94953125 19.13140625 -4 20 C-6.58397895 16.12403157 -6.15138171 14.07334157 -5.625 9.5859375 C-4.64918692 5.54851088 -2.6664844 3.14508417 0 0 Z " fill="#898989" transform="translate(365,16)"/>
<path d="M0 0 C1.98 0 3.96 0 6 0 C7.59412284 3.18824568 7.10174735 6.62896662 7.0625 10.125 C7.05798828 10.87910156 7.05347656 11.63320312 7.04882812 12.41015625 C7.03703499 14.27347127 7.01909942 16.13674555 7 18 C4.625 18.625 4.625 18.625 2 19 C1.34 18.34 0.68 17.68 0 17 C1.65 17 3.3 17 5 17 C5 11.72 5 6.44 5 1 C3.35 1 1.7 1 0 1 C0 0.67 0 0.34 0 0 Z " fill="#727272" transform="translate(487,105)"/>
<path d="M0 0 C0.99 0.66 1.98 1.32 3 2 C0.54595776 3.19716659 -1.91251679 4.3829346 -4.375 5.5625 C-5.42300781 6.07586914 -5.42300781 6.07586914 -6.4921875 6.59960938 C-8.30052216 7.46030712 -10.14851956 8.23652436 -12 9 C-12.66 8.67 -13.32 8.34 -14 8 C-12.41779413 7.03980636 -10.83418669 6.08192202 -9.25 5.125 C-7.92742187 4.32449219 -7.92742187 4.32449219 -6.578125 3.5078125 C-4.41725907 2.24403334 -2.25429605 1.08501165 0 0 Z " fill="#6D6D6D" transform="translate(90,31)"/>
<path d="M0 0 C0.33 0 0.66 0 1 0 C1.06058594 0.61488281 1.12117187 1.22976562 1.18359375 1.86328125 C1.26738281 2.67152344 1.35117188 3.47976562 1.4375 4.3125 C1.51871094 5.11300781 1.59992188 5.91351563 1.68359375 6.73828125 C1.95265693 9.16087179 1.95265693 9.16087179 3 12 C2.67 12.99 2.34 13.98 2 15 C1.34 14.67 0.68 14.34 0 14 C-0.99 14.33 -1.98 14.66 -3 15 C-2.01 10.05 -1.02 5.1 0 0 Z " fill="#9F9F9F" transform="translate(151,96)"/>
<path d="M0 0 C1 2 1 2 0.36328125 4.05859375 C-3.10662979 11.91426596 -3.10662979 11.91426596 -7 14 C-6.67 11.03 -6.34 8.06 -6 5 C-5.34 5.66 -4.68 6.32 -4 7 C-2.68 4.69 -1.36 2.38 0 0 Z " fill="#828282" transform="translate(328,148)"/>
<path d="M0 0 C2.33294775 -0.04241723 4.66702567 -0.04092937 7 0 C8 1 8 1 8.11352539 2.94946289 C8.10828857 3.7821167 8.10305176 4.61477051 8.09765625 5.47265625 C8.09443359 6.37177734 8.09121094 7.27089844 8.08789062 8.19726562 C8.07951172 9.14279297 8.07113281 10.08832031 8.0625 11.0625 C8.05798828 12.01189453 8.05347656 12.96128906 8.04882812 13.93945312 C8.0370011 16.29303065 8.02052025 18.64648477 8 21 C7.67 21 7.34 21 7 21 C6.93941406 19.79601562 6.87882812 18.59203125 6.81640625 17.3515625 C6.73200268 15.77602923 6.64735459 14.20050904 6.5625 12.625 C6.52318359 11.8309375 6.48386719 11.036875 6.44335938 10.21875 C6.31106596 5.97398779 6.31106596 5.97398779 5 2 C2.47266765 1.34444881 2.47266765 1.34444881 0 1 C0 0.67 0 0.34 0 0 Z " fill="#505050" transform="translate(270,111)"/>
<path d="M0 0 C-0.639375 0.433125 -1.27875 0.86625 -1.9375 1.3125 C-4.26746003 2.91239177 -4.26746003 2.91239177 -5 6 C-7.31 5.34 -9.62 4.68 -12 4 C-9.94577945 1.94577945 -8.66990976 1.31862408 -6 0.3125 C-5.29875 0.04050781 -4.5975 -0.23148437 -3.875 -0.51171875 C-2 -1 -2 -1 0 0 Z " fill="#A0A0A0" transform="translate(79,71)"/>
<path d="M0 0 C3.465 1.98 3.465 1.98 7 4 C6.01 4.66 5.02 5.32 4 6 C4 5.34 4 4.68 4 4 C3.01 4.495 3.01 4.495 2 5 C1.34227572 8.02934491 1.34227572 8.02934491 1 11 C-1.08997373 7.60379269 -1.2632246 4.94836905 -1 1 C-0.67 0.67 -0.34 0.34 0 0 Z " fill="#9B9B9B" transform="translate(173,24)"/>
<path d="M0 0 C0.99386719 0.00902344 1.98773438 0.01804687 3.01171875 0.02734375 C4.15060547 0.04474609 4.15060547 0.04474609 5.3125 0.0625 C5.3125 0.3925 5.3125 0.7225 5.3125 1.0625 C4.62542969 1.09988281 3.93835938 1.13726562 3.23046875 1.17578125 C2.32941406 1.24152344 1.42835938 1.30726563 0.5 1.375 C-0.39332031 1.43300781 -1.28664062 1.49101563 -2.20703125 1.55078125 C-5.04830887 2.13693459 -5.87738181 2.86100491 -7.6875 5.0625 C-8.3475 5.7225 -9.0075 6.3825 -9.6875 7.0625 C-11.8125 6.6875 -11.8125 6.6875 -13.6875 6.0625 C-9.08381966 1.20997208 -6.64125201 -0.07813238 0 0 Z " fill="#BBBBBB" transform="translate(141.6875,4.9375)"/>
<path d="M0 0 C0.53625 0.2475 1.0725 0.495 1.625 0.75 C1.955 2.4 2.285 4.05 2.625 5.75 C1.635 4.76 0.645 3.77 -0.375 2.75 C-1.798125 3.2759375 -1.798125 3.2759375 -3.25 3.8125 C-6.375 4.75 -6.375 4.75 -8.375 3.75 C-2.95961538 -0.31153846 -2.95961538 -0.31153846 0 0 Z " fill="#8D8D8D" transform="translate(442.375,161.25)"/>
<path d="M0 0 C1 2 1 2 1 6 C-0.08073852 8.16147703 -1.19363264 9.41039672 -3 11 C-3.66 11 -4.32 11 -5 11 C-3.77472971 6.94718288 -2.30119506 3.55639236 0 0 Z " fill="#979797" transform="translate(336,132)"/>
<path d="M0 0 C2 2 2 2 2.1953125 4.3828125 C2.17210937 5.28773437 2.14890625 6.19265625 2.125 7.125 C2.10695313 8.03507812 2.08890625 8.94515625 2.0703125 9.8828125 C2.04710937 10.58148438 2.02390625 11.28015625 2 12 C1.67 12 1.34 12 1 12 C1 10.02 1 8.04 1 6 C0.01 6 -0.98 6 -2 6 C-1.34 4.02 -0.68 2.04 0 0 Z " fill="#4C4C4C" transform="translate(475,30)"/>
<path d="M0 0 C0.33 0.66 0.66 1.32 1 2 C0.22265625 3.9453125 0.22265625 3.9453125 -0.9375 6.125 C-1.31777344 6.84945312 -1.69804687 7.57390625 -2.08984375 8.3203125 C-2.39019531 8.87460937 -2.69054687 9.42890625 -3 10 C-3.66 10 -4.32 10 -5 10 C-5.33 8.68 -5.66 7.36 -6 6 C-5.01 6.33 -4.02 6.66 -3 7 C-2.690625 6.030625 -2.38125 5.06125 -2.0625 4.0625 C-1 1 -1 1 0 0 Z " fill="#656565" transform="translate(456,53)"/>
<path d="M0 0 C2.33294775 -0.04241723 4.66702567 -0.04092937 7 0 C8 1 8 1 8.09765625 2.84765625 C8.04882812 5.92382812 8.04882812 5.92382812 8 9 C7.67 9 7.34 9 7 9 C6.67 7.02 6.34 5.04 6 3 C4.02 2.34 2.04 1.68 0 1 C0 0.67 0 0.34 0 0 Z " fill="#696969" transform="translate(218,111)"/>
<path d="M0 0 C0.433125 0.495 0.86625 0.99 1.3125 1.5 C2.99740483 3.33218192 2.99740483 3.33218192 6 3 C6 3.99 6 4.98 6 6 C4.35 6 2.7 6 1 6 C0.67 4.02 0.34 2.04 0 0 Z " fill="#BBBBBB" transform="translate(479,142)"/>
<path d="M0 0 C0 3 0 3 -1.5 4.6875 C-1.995 5.120625 -2.49 5.55375 -3 6 C-3.66 5.67 -4.32 5.34 -5 5 C-4.1875 3.0625 -4.1875 3.0625 -3 1 C-2.01 0.67 -1.02 0.34 0 0 Z " fill="#A0A0A0" transform="translate(266,135)"/>
<path d="M0 0 C0.33 0 0.66 0 1 0 C1.02689216 1.47906892 1.04634621 2.95827483 1.0625 4.4375 C1.07410156 5.26121094 1.08570313 6.08492188 1.09765625 6.93359375 C1 9 1 9 0 10 C-1.66617115 10.04063832 -3.33388095 10.042721 -5 10 C-4.360625 9.649375 -3.72125 9.29875 -3.0625 8.9375 C-0.17836168 6.22815794 -0.2899178 3.84141089 0 0 Z " fill="#6D6D6D" transform="translate(477,64)"/>
<path d="M0 0 C-0.75 2.4375 -0.75 2.4375 -2 5 C-4.125 5.8125 -4.125 5.8125 -6 6 C-3.84615385 0 -3.84615385 0 0 0 Z " fill="#CBCBCB" transform="translate(126,12)"/>
</svg>
