<?xml version="1.0" standalone="no"?>
<!DOCTYPE svg PUBLIC "-//W3C//DTD SVG 20010904//EN"
 "http://www.w3.org/TR/2001/REC-SVG-20010904/DTD/svg10.dtd">
<svg version="1.0" xmlns="http://www.w3.org/2000/svg"
 width="175.000000pt" height="183.000000pt" viewBox="0 0 175.000000 183.000000"
 preserveAspectRatio="xMidYMid meet">
<metadata>
Created by potrace 1.10, written by Peter Selinger 2001-2011
</metadata>
<g transform="translate(0.000000,183.000000) scale(0.100000,-0.100000)"
fill="#000000" stroke="none">
<path d="M945 1810 c-10 -11 -26 -20 -36 -20 -10 0 -20 -4 -24 -10 -3 -5 -12
-7 -20 -3 -18 6 -20 -13 -2 -21 6 -3 -1 -3 -18 0 -24 5 -27 3 -15 -6 12 -10
11 -11 -8 -7 -12 3 -20 1 -17 -4 3 -4 -6 -11 -20 -15 -14 -3 -22 -11 -18 -17
3 -6 1 -7 -6 -3 -7 5 -20 -1 -30 -13 -10 -12 -26 -21 -35 -21 -10 0 -14 -5
-10 -11 4 -8 -1 -9 -17 -4 -13 4 -21 4 -17 0 11 -11 -33 -47 -49 -41 -7 3 -13
1 -13 -4 0 -6 -6 -10 -14 -10 -8 0 -16 -7 -20 -15 -3 -8 -16 -15 -30 -15 -28
0 -43 -15 -24 -23 9 -4 7 -6 -3 -6 -9 -1 -28 -10 -43 -22 -14 -11 -30 -17 -36
-14 -6 4 -9 1 -8 -6 2 -7 -6 -15 -16 -17 -19 -4 -66 -42 -53 -42 4 0 51 23
105 52 94 49 167 91 357 205 99 60 182 88 227 79 26 -5 91 -47 215 -139 l32
-24 5 -436 c5 -462 0 -529 -42 -601 l-18 -31 -136 -3 c-131 -2 -136 -3 -142
-25 -3 -12 -6 -84 -6 -159 l0 -138 -360 0 -361 0 6 73 c8 104 25 396 25 437 0
61 -18 19 -34 -80 -8 -52 -14 -125 -13 -162 2 -37 0 -63 -3 -59 -3 5 -6 -21
-8 -57 -1 -37 -4 -84 -5 -106 -2 -34 2 -40 30 -56 18 -9 30 -20 27 -22 -3 -3
116 -4 263 -1 147 2 296 0 331 -5 53 -7 64 -6 72 7 8 13 10 11 11 -9 l1 -25 8
25 c4 14 8 21 9 16 1 -5 10 3 21 17 18 22 20 40 20 155 0 115 2 130 18 134 9
3 67 3 127 1 77 -2 105 0 95 7 -11 7 5 9 56 8 40 -2 70 -6 67 -11 -2 -4 3 -7
12 -7 10 0 13 5 9 12 -5 7 -2 9 8 5 16 -5 103 33 123 55 7 8 6 9 -5 3 -13 -8
-13 -6 -1 8 7 9 18 14 24 10 6 -4 8 0 4 10 -3 10 -3 17 1 17 5 0 14 17 22 38
11 29 15 111 16 367 2 329 0 351 -33 435 -3 8 -5 24 -5 35 2 20 2 20 -7 0 -5
-11 -5 -24 0 -30 5 -5 9 -14 9 -20 -1 -15 -24 27 -25 44 0 8 -9 19 -20 25 -28
16 -45 33 -45 45 0 6 -6 8 -14 5 -8 -3 -20 4 -28 15 -8 11 -25 22 -38 23 -26
3 -92 57 -85 69 3 4 -4 10 -15 14 -11 3 -20 11 -20 16 0 6 -5 7 -11 3 -6 -3
-22 -1 -35 6 -18 10 -21 16 -11 24 7 6 10 10 8 9 -2 -2 -10 2 -18 8 -9 8 -13
8 -13 1 0 -6 -6 -9 -14 -6 -9 3 -12 13 -9 22 4 9 3 14 -2 10 -4 -4 -14 0 -22
8 -9 8 -22 13 -30 10 -8 -3 -11 -2 -8 3 9 15 -35 24 -50 11 -12 -10 -15 -10
-15 -1 0 8 -8 10 -21 6 -15 -5 -19 -4 -15 4 11 18 1 13 -19 -9z m438 -269 c65
-48 114 -103 124 -139 5 -15 8 -184 8 -377 l0 -350 -24 -42 c-29 -51 -81 -79
-163 -89 l-57 -7 22 54 c21 53 22 66 25 522 2 257 5 467 8 467 3 0 28 -17 57
-39z"/>
<path d="M919 1715 c-35 -13 -241 -118 -384 -197 -38 -22 -85 -46 -102 -54
-18 -8 -33 -19 -33 -25 0 -5 -5 -7 -12 -3 -7 4 -8 3 -4 -4 7 -12 54 3 67 22 4
5 12 5 18 2 6 -4 14 -1 17 8 4 10 16 13 36 10 27 -3 29 -2 14 9 -15 11 -14 12
9 14 50 4 56 7 51 20 -7 17 25 17 44 1 12 -11 12 -10 1 5 -10 12 -10 17 -2 17
7 0 10 4 6 9 -3 5 0 13 6 17 8 4 9 3 5 -4 -5 -8 1 -12 16 -12 18 0 20 -2 8
-10 -8 -5 -10 -10 -4 -10 18 0 24 12 14 30 -7 13 -6 20 6 24 10 4 13 2 7 -7
-4 -6 5 -4 20 6 15 10 32 15 37 12 5 -3 7 1 4 9 -4 11 0 13 17 9 16 -5 20 -3
14 6 -6 10 -3 11 13 2 26 -14 42 -14 22 0 -11 8 -8 9 15 5 22 -5 26 -4 15 4
-8 5 -10 10 -5 10 6 0 3 5 -5 11 -12 9 -12 10 4 5 11 -4 27 1 38 11 11 10 22
17 24 16 12 -8 24 -1 18 9 -4 7 -3 8 5 4 18 -12 71 -16 71 -6 0 5 -8 11 -17
13 -15 4 -15 5 -2 6 23 2 69 -41 69 -64 0 -15 2 -17 9 -7 5 8 9 -84 10 -215 1
-125 4 -244 6 -263 4 -25 3 -29 -3 -15 -5 12 -9 -49 -8 -154 1 -95 -2 -175 -6
-178 -5 -2 -8 -15 -8 -29 0 -14 -4 -22 -10 -19 -5 3 -7 0 -4 -8 3 -9 -4 -22
-18 -31 -12 -9 -18 -16 -13 -16 6 0 2 -5 -8 -11 -9 -5 -22 -7 -29 -3 -7 5 -9
2 -6 -7 4 -10 -4 -14 -29 -16 -19 -1 -40 -6 -46 -12 -14 -11 -170 -34 -239
-35 -27 0 -44 -4 -41 -10 4 -6 -1 -6 -13 -2 -30 13 -48 12 -50 -1 -1 -7 -2
-18 -3 -24 0 -5 -5 -7 -11 -4 -14 9 -19 -26 -24 -154 -5 -123 -8 -130 -60
-126 -17 1 -35 0 -41 -3 -15 -9 -78 -2 -93 10 -10 8 -11 6 -6 -8 5 -13 4 -16
-4 -9 -6 6 -12 89 -14 218 -2 142 -7 210 -14 215 -7 4 -14 18 -17 32 -2 14 -5
-93 -6 -237 l-1 -263 63 0 c34 0 99 3 145 7 l82 6 0 148 c0 82 2 149 4 149 2
0 71 9 153 20 274 37 356 76 390 190 14 47 17 113 17 445 1 215 -2 402 -6 417
-5 14 -20 40 -34 57 -22 27 -32 31 -72 30 -26 0 -63 -6 -83 -14z m-632 -1147
c-2 -18 -4 -4 -4 32 0 36 2 50 4 33 2 -18 2 -48 0 -65z"/>
<path d="M721 1303 c-1 -6 -16 -15 -33 -19 -18 -3 -39 -14 -46 -23 -7 -9 -11
-10 -7 -4 4 9 1 11 -9 7 -9 -3 -14 -9 -12 -13 2 -3 -12 -7 -32 -9 -21 -1 -38
-7 -40 -12 -2 -6 -14 -10 -27 -10 -13 0 -30 -6 -37 -13 -13 -13 -80 -32 -105
-30 -7 0 -13 -5 -13 -12 0 -15 -27 -28 -41 -19 -5 3 -9 0 -9 -5 0 -6 -7 -11
-16 -11 -8 0 -12 -4 -9 -10 6 -10 -5 -13 -35 -11 -9 0 -6 -4 6 -10 17 -9 58 4
230 70 115 44 226 87 246 95 21 9 39 16 40 16 2 0 3 -66 3 -147 l0 -147 -75
-13 c-41 -8 -90 -15 -107 -16 -32 -2 -48 -17 -18 -17 8 0 15 -4 15 -10 0 -5
-5 -10 -12 -10 -6 0 -9 -2 -7 -4 3 -3 22 0 44 5 22 6 64 14 93 19 58 9 108 49
98 77 -4 10 -2 13 7 10 11 -4 12 6 5 52 -4 31 -7 84 -6 119 2 36 -2 66 -8 70
-6 4 -13 15 -17 24 -5 14 -11 16 -31 8 -17 -6 -26 -5 -30 3 -3 9 -5 9 -5 0z"/>
<path d="M250 1078 c0 -4 5 -8 11 -8 5 0 7 -5 3 -11 -4 -8 1 -9 16 -4 15 5 20
4 16 -4 -4 -6 0 -11 11 -12 10 0 27 -3 38 -6 11 -3 30 -6 42 -7 11 0 19 -5 15
-10 -3 -5 8 -6 26 -3 19 4 34 2 38 -5 5 -8 1 -9 -12 -4 -10 4 -15 4 -11 0 4
-5 28 -9 53 -10 24 -2 51 -10 60 -19 8 -8 17 -15 19 -15 10 0 75 34 75 39 0 4
-42 14 -92 24 -51 10 -141 28 -200 41 -60 12 -108 19 -108 14z"/>
<path d="M927 587 c-3 -8 -1 -20 4 -28 6 -10 9 -7 9 14 0 29 -5 35 -13 14z"/>
</g>
</svg>
