<?xml version="1.0" standalone="no"?>
<!DOCTYPE svg PUBLIC "-//W3C//DTD SVG 20010904//EN"
 "http://www.w3.org/TR/2001/REC-SVG-20010904/DTD/svg10.dtd">
<svg version="1.0" xmlns="http://www.w3.org/2000/svg"
 width="175.000000pt" height="183.000000pt" viewBox="0 0 175.000000 183.000000"
 preserveAspectRatio="xMidYMid meet">
<metadata>
Created by potrace 1.10, written by Peter Selinger 2001-2011
</metadata>
<g transform="translate(0.000000,183.000000) scale(0.100000,-0.100000)"
fill="#000000" stroke="none">
<path d="M0 915 l0 -915 875 0 875 0 0 915 0 915 -875 0 -875 0 0 -915z m1171
778 l111 -78 2 -465 c1 -491 -1 -520 -46 -582 l-19 -28 -134 0 c-158 0 -145
17 -145 -182 l0 -138 -354 0 c-195 0 -357 3 -359 7 -3 5 3 125 12 268 l16 260
3 -247 2 -248 54 0 c29 0 94 3 144 6 l92 7 0 148 0 147 38 6 c20 3 90 13 156
22 205 27 296 67 338 147 19 37 23 67 30 242 13 286 6 630 -14 675 -26 60 -49
73 -115 68 -50 -4 -93 -23 -305 -132 -137 -69 -248 -124 -248 -121 0 2 18 14
40 25 21 11 124 70 227 132 103 62 211 120 238 130 80 29 110 20 236 -69z
m261 -192 c86 -77 83 -58 83 -466 l0 -360 -24 -42 c-29 -50 -80 -79 -158 -89
-29 -4 -53 -4 -53 -2 0 3 9 40 20 83 19 72 20 111 20 517 l0 439 31 -18 c17
-10 54 -38 81 -62z m-1012 -35 c0 -3 -5 -8 -12 -12 -7 -4 -8 -3 -4 4 7 12 16
16 16 8z m359 -330 c1 -101 -1 -136 -11 -143 -19 -12 -178 -41 -178 -33 0 4
14 13 32 21 38 15 31 19 -82 43 -183 38 -261 59 -253 66 4 4 40 19 78 33 39
14 144 55 235 90 91 35 168 63 171 61 3 -2 7 -64 8 -138z"/>
</g>
</svg>
